<svg xmlns="http://www.w3.org/2000/svg" viewBox="0 0 1200 700">
  <defs>
    <linearGradient id="bg" x1="0" y1="0" x2="1" y2="1">
      <stop offset="0%" stop-color="#cffafe"/>
      <stop offset="100%" stop-color="#bfdbfe"/>
    </linearGradient>
    <linearGradient id="slide" x1="0" y1="0" x2="1" y2="1">
      <stop offset="0%" stop-color="#0ea5e9"/>
      <stop offset="100%" stop-color="#22c55e"/>
    </linearGradient>
  </defs>

  <rect width="1200" height="700" rx="36" fill="url(#bg)"/>
  <circle cx="120" cy="110" r="56" fill="#0ea5e9" opacity="0.15"/>
  <circle cx="1040" cy="130" r="50" fill="#22c55e" opacity="0.14"/>

  <rect x="90" y="70" width="240" height="48" rx="24" fill="rgba(255,255,255,0.85)"/>
  <text x="210" y="102" text-anchor="middle" font-family="Arial, Helvetica, sans-serif" font-size="24" font-weight="700" fill="#0284c7">WATER SLIDE</text>

  <path d="M260 200 L430 200 L790 530 L610 530 Z" fill="url(#slide)"/>
  <rect x="210" y="200" width="90" height="330" rx="26" fill="#38bdf8"/>
  <rect x="300" y="215" width="135" height="54" rx="20" fill="rgba(255,255,255,0.2)"/>
  <ellipse cx="760" cy="560" rx="190" ry="56" fill="#67e8f9"/>
  <ellipse cx="760" cy="560" rx="145" ry="36" fill="rgba(255,255,255,0.55)"/>

  <path d="M120 585 Q300 540 460 590 T820 585 T1120 590" fill="none" stroke="rgba(255,255,255,0.65)" stroke-width="14" stroke-linecap="round"/>
  <text x="620" y="395" text-anchor="middle" font-size="108">💦</text>
  <text x="600" y="625" text-anchor="middle" font-family="Arial, Helvetica, sans-serif" font-size="34" font-weight="700" fill="#0284c7">RENTALOS PLACEHOLDER MEDIA</text>
</svg>